<?xml version="1.0" encoding="UTF-8"?>
<svg id="a" data-name="Layer 1" xmlns="http://www.w3.org/2000/svg" viewBox="0 0 1217.48 201.26">
  <rect x="1024.02" y="70.87" width="56.93" height="59.53" fill="#fff"/>
  <rect x="1160.55" y="70.87" width="56.93" height="59.53" fill="#fff"/>
  <path d="M193.46,0H0v201.26h56.93v-70.87h11.34v70.87h125.2v-59.53h-68.27v-11.34h68.27V0ZM56.93,70.87h0v-11.34h79.6v11.34H56.93Z" fill="#fff"/>
  <polygon points="261.73 59.53 398.27 59.53 398.27 0 204.8 0 204.8 201.26 398.27 201.26 398.27 141.73 261.73 141.73 261.73 130.39 398.27 130.39 398.27 70.87 261.73 70.87 261.73 59.53 261.73 59.53" fill="#fff"/>
  <path d="M603.07,0h-193.47v201.26h56.93v-70.87h136.54V0ZM466.53,70.87v-11.34h79.61v11.34h-79.61Z" fill="#fff"/>
  <rect x="477.87" y="141.73" width="56.93" height="59.53" fill="#fff"/>
  <rect x="546.14" y="141.73" width="56.93" height="59.53" fill="#fff"/>
  <polygon points="671.34 59.53 807.88 59.53 807.88 0 614.41 0 614.41 201.26 807.87 201.26 807.87 141.73 671.34 141.73 671.34 130.39 807.87 130.39 807.87 70.87 671.34 70.87 671.34 59.53 671.34 59.53" fill="#fff"/>
  <rect x="887.48" y="141.73" width="56.93" height="59.53" fill="#fff"/>
  <path d="M1012.68,0h-193.47v201.26h56.93v-70.87h79.61v70.87h56.93V0ZM876.14,70.87v-11.34h79.61v11.34h-79.61Z" fill="#fff"/>
  <rect x="1024.02" y="141.73" width="56.93" height="59.53" fill="#fff"/>
  <polygon points="1024.02 0 1024.02 59.53 1092.28 59.53 1092.28 201.26 1149.21 201.26 1149.21 59.53 1149.21 59.53 1217.48 59.53 1217.48 0 1024.02 0" fill="#fff"/>
  <rect x="1160.55" y="141.73" width="56.93" height="59.53" fill="#fff"/>
</svg>